<?xml version="1.0" encoding="UTF-8" standalone="no"?>
<!-- Created with Inkscape (http://www.inkscape.org/) -->

<svg
   xmlns:dc="http://purl.org/dc/elements/1.1/"
   xmlns:cc="http://creativecommons.org/ns#"
   xmlns:rdf="http://www.w3.org/1999/02/22-rdf-syntax-ns#"
   xmlns:svg="http://www.w3.org/2000/svg"
   xmlns="http://www.w3.org/2000/svg"
   xmlns:sodipodi="http://sodipodi.sourceforge.net/DTD/sodipodi-0.dtd"
   xmlns:inkscape="http://www.inkscape.org/namespaces/inkscape"
   width="183.81589mm"
   height="183.81589mm"
   viewBox="0 0 651.31614 651.31613"
   id="svg2"
   version="1.1"
   inkscape:version="0.91 r13725"
   sodipodi:docname="fedora-logo-sprite.svg">
  <defs
     id="defs4" />
  <sodipodi:namedview
     id="base"
     pagecolor="#ffffff"
     bordercolor="#666666"
     borderopacity="1.0"
     inkscape:pageopacity="0.0"
     inkscape:pageshadow="2"
     inkscape:zoom="0.70710678"
     inkscape:cx="-6.1269355"
     inkscape:cy="363.70547"
     inkscape:document-units="px"
     inkscape:current-layer="layer1"
     showgrid="false"
     inkscape:window-width="1920"
     inkscape:window-height="1032"
     inkscape:window-x="0"
     inkscape:window-y="20"
     inkscape:window-maximized="1"
     fit-margin-top="2"
     fit-margin-left="2"
     fit-margin-right="2"
     fit-margin-bottom="2" />
  <metadata
     id="metadata7">
    <rdf:RDF>
      <cc:Work
         rdf:about="">
        <dc:format>image/svg+xml</dc:format>
        <dc:type
           rdf:resource="http://purl.org/dc/dcmitype/StillImage" />
        <dc:title></dc:title>
      </cc:Work>
    </rdf:RDF>
  </metadata>
  <g
     inkscape:label="Layer 1"
     inkscape:groupmode="layer"
     id="layer1"
     transform="translate(-52.913355,-162.41845)">
    <circle
       style="fill:#5294e2;fill-opacity:1"
       id="path4687"
       cx="378.57141"
       cy="488.07651"
       r="318.57144" />
    <g
       id="g4722"
       transform="matrix(0.80840182,0,0,0.80840182,79.188799,162.87395)">
      <g
         inkscape:label="Layer 2"
         id="layer2" />
      <g
         id="layer1-6"
         inkscape:label="Layer 1">
        <path
           sodipodi:nodetypes="ssssccssssssssscssssssssscsssscssssssssccccsscccssccccccccccccccssscccscssccccccccccc"
           inkscape:connector-curvature="0"
           id="path3462"
           d="m 367.97461,87.917911 c -12.76413,0.03376 -18.34039,0.463097 -25.99805,1.999202 -25.06405,5.027789 -40.99898,14.744917 -53.5957,32.683677 -11.75478,16.73975 -18.58715,37.29377 -34.11914,102.6276 l -6.70313,28.19533 -19.88281,27.75044 c -10.9357,15.26194 -30.93074,43.2556 -44.43359,62.20992 -13.50285,18.95433 -41.3892,58.02661 -61.96875,86.82734 -24.607222,34.43739 -36.925874,52.56752 -35.982424,52.95353 3.44366,1.40898 32.431504,2.76745 48.308594,2.26389 23.54875,-0.74686 51.08039,-4.49311 61.67969,-8.39102 1.95451,-0.71877 3.81078,-1.12231 4.125,-0.8973 0.31423,0.22502 -0.0885,6.58343 -0.89453,14.12959 -1.9171,17.94792 -0.86151,57.02178 1.88476,69.73555 10.59148,49.03269 37.9481,80.1867 85.17578,96.9998 18.00168,6.40862 34.06711,9.57864 63.6543,12.56213 2.0625,0.20795 15,0.24273 28.75,0.0769 18.7241,-0.22572 27.99273,-0.74494 36.91992,-2.07053 48.79619,-7.24579 81.66953,-25.22299 102.46485,-56.03211 10.86959,-16.10383 16.91003,-31.81798 20.51562,-53.36838 3.80193,-22.72424 3.77623,-43.35103 -0.0957,-75.0649 -0.91673,-7.50862 -2.12832,-7.09757 10.97656,-3.73372 21.48987,5.51618 54.03734,8.10786 81.43359,6.4838 26.32791,-1.56072 24.70119,-0.32929 15.99805,-12.10972 C 633.38687,456.42225 529.18248,312.00129 507.12109,281.01084 l -21.14453,-29.7027 -9.26953,-47.72557 c -5.09846,-26.24962 -10.42868,-51.35156 -11.8457,-55.78243 -7.8251,-24.46844 -27.20399,-43.76714 -53.08789,-52.867187 -16.43392,-5.777698 -24.47526,-7.066174 -43.79883,-7.015042 z m 40.81836,193.922649 c 3.06804,0.42289 13.74485,7.32231 19.25976,12.57526 14.16478,13.49202 22.02491,29.62112 30.50196,62.59475 13.83482,53.81397 25.22993,119.013 28.76562,164.57474 5.52445,71.18948 -28.51313,108.50654 -103.625,113.60726 -33.32165,2.26281 -57.32132,-0.21912 -79.4707,-8.21832 -29.17682,-10.53711 -47.44061,-30.36873 -55.20117,-59.94041 -2.7307,-10.4053 -3.06279,-42.67601 -0.6543,-63.42071 6.99346,-60.23562 26.55548,-153.51335 38.4375,-183.27526 5.77714,-14.47045 19.07117,-30.9992 28.48633,-35.41686 l 2.97265,-1.39474 12.74415,14.85417 12.74609,14.85417 -27.07617,90.73377 c -14.89147,49.90364 -26.79927,91.22767 -26.46289,91.83191 0.33638,0.60423 17.06558,13.50969 37.17773,28.67963 l 36.56836,27.58336 36.38086,-26.56968 c 20.00966,-14.61268 36.8668,-27.17101 37.46094,-27.90812 0.70011,-0.86856 -8.70222,-33.35572 -26.71875,-92.31622 l -27.79883,-90.97592 11.92187,-16.08747 c 6.55774,-8.84751 12.443,-16.20854 13.07618,-16.35968 0.13311,-0.0317 0.30327,-0.0339 0.50781,-0.006 z M 429.3125,673.1211 c -0.18441,-0.006 -0.364,0.009 -0.54102,0.047 -6.0639,1.2839 -23.50309,3.37196 -32.73437,3.91958 l -10.5625,0.62697 -0.33984,17.23068 -0.33789,17.23256 64.3457,0 64.34765,0 -1.69726,-3.44463 c -2.61272,-5.30295 -6.35707,-10.17791 -9.9375,-12.93756 -5.28136,-4.07075 -11.13881,-5.28037 -28.88086,-5.96382 -22.24893,-0.85711 -31.39421,-3.94348 -38.91602,-13.13467 -1.9639,-2.39976 -3.4552,-3.5316 -4.74609,-3.57604 z m -124.12109,0.78091 c -1.97901,-0.0837 -3.06482,0.68188 -5.3418,3.40335 -3.94397,4.71388 -12.20291,9.31929 -19.77149,11.02283 -3.2187,0.72441 -12.54827,1.57343 -20.73046,1.88656 -15.88043,0.60776 -21.7481,1.80143 -27.19532,5.53771 -3.02628,2.07575 -8.28801,9.37946 -10.38281,14.41115 l -0.83789,2.01421 63.20898,0 63.20899,0 0,-16.50608 0,-16.50422 -5.9375,-0.55753 c -3.26563,-0.3067 -11.84375,-1.37895 -19.0625,-2.38215 -7.21875,-1.00311 -14.53125,-2.0122 -16.25,-2.24136 -0.32528,-0.0434 -0.62549,-0.0725 -0.9082,-0.0845 z"
           style="fill:#000000;fill-opacity:1" />
      </g>
    </g>
    <path
       style="fill:#ffffff;fill-rule:evenodd;stroke:#000000;stroke-width:1px;stroke-linecap:butt;stroke-linejoin:miter;stroke-opacity:1"
       d="m 409.28572,389.8622 -0.35715,0.53572"
       id="path5340"
       inkscape:connector-curvature="0"
       sodipodi:nodetypes="cc" />
    <path
       style="fill:#ffffff;fill-rule:evenodd;stroke:#000000;stroke-width:1px;stroke-linecap:butt;stroke-linejoin:miter;stroke-opacity:1"
       d="m 336.47266,392.07314 0.41406,0.48438 0.41015,0.47656 0.66797,0.78125 0.51172,0.59375 0.45313,0.53125 0.4375,0.50781 0.62109,0.72266 0.68359,0.80078 0.52344,0.61328 0.50781,0.58984 0.63282,0.73438 0.46875,0.54687 0.79297,0.91797 1.23828,1.44922 4.5853,5.35937 2.68479,3.11569 2.39754,2.79528 1.65728,1.92245 0.93912,1.10485 -0.7513,2.36439 -0.43089,1.5026 -0.68501,2.33124 -0.93913,3.11569 -0.87283,2.91682 -0.99437,3.33666 -0.99437,3.34771 -1.09381,3.60182 -0.90598,3.12674 -0.58557,1.95559 -0.85074,2.79528 -1.19324,4.03272 -1.29268,4.31998 -1.81196,6.0767 -14.29184,48.10499 -3.21875,10.875 -3.8125,12.90625 -4.28125,14.78125 -3.0625,11.125 -1.25,4.875 5.34375,4.40625 4.59375,3.53125 5.46875,4.15625 7.65625,5.8125 8.65625,6.59375 12.59375,9.5 15.3125,11.53125 11.65625,-8.46875 4.90625,-3.625 16.90625,-12.34375 10.9375,-8.03125 9.65625,-7.1875 5.6875,-4.375 -0.34375,-2.0625 -0.75,-3.125 -1.28125,-4.78125 -3.0625,-10.71875 -4.125,-13.96875 -3.3125,-11 -4.21875,-14.03125 -2.9375,-9.75 -4.78125,-15.625 -4.5,-14.6875 -7.5,-24.53125 -6.78125,-22.125 -0.5625,-1.78125 7.84375,-10.5625 5.65625,-7.53125 4.78125,-6 1.2055,-1.40367 0.47509,-0.50824 0.26516,-0.20992 0.28726,-0.0111 0.44194,0.0663 0.91703,0.30936 1.03857,0.46404 1.60204,0.85074 1.16009,0.67396 1.02752,0.62977 1.24848,0.79549 1.75672,1.20429 1.45841,1.02752 2.22076,1.70148 1.55784,1.29267 1.53575,1.39212 1.29268,1.29268 1.30373,1.33687 1.22638,1.37002 1.21534,1.40317 0.92808,1.14905 1.06066,1.40316 1.1159,1.5247 1.02752,1.5026 1.5247,2.40859 1.10485,1.94454 0.99437,1.81196 1.138,2.2981 1.1822,2.51907 1.1159,2.60745 0.66291,1.67938 0.74025,1.8893 1.64624,4.60724 1.28163,3.95538 1.16009,3.83385 0.67397,2.37543 0.69605,2.53012 0.80655,2.97206 1.31477,5.13757 0.7955,3.13779 0.60767,2.53011 0.90598,3.70127 0.4088,1.74567 0.31488,1.32582 0.63529,2.72347 0.26517,1.14905 0.46403,2.03845 0.48062,2.11027 0.45851,2.02189 0.58557,2.67374 5.74525,27.63241 4.94974,28.8146 2.91682,20.15255 2.65165,23.77646 0.70711,11.62307 0,9.76691 -0.70711,8.52948 -0.7955,5.12652 -1.10485,5.65686 -2.20971,7.51301 -3.40295,8.17592 -3.57973,6.09879 -3.31456,4.5962 -3.84489,4.46361 -3.88909,3.66812 -4.64039,3.62392 -3.13779,2.20971 -4.37522,2.51907 -5.25911,2.74003 -6.54073,2.65165 -6.98268,2.20971 -5.48008,1.41422 -5.83363,1.23743 -6.8059,1.14905 -7.29204,0.7955 -6.23138,0.48613 -5.52427,0.26517 -8.83884,0.30936 -5.65685,0 -6.58493,-0.26517 -7.91076,-0.57452 -7.15946,-0.97227 -5.56846,-1.01647 -5.65686,-1.32583 -5.65685,-1.54679 -4.37523,-1.5468 -4.68458,-1.81196 -5.70105,-2.65165 -4.37522,-2.47487 -4.94975,-3.27037 -2.65165,-2.07713 -4.28683,-3.8007 -5.3475,-5.92202 -4.11006,-5.78943 -2.91681,-5.3033 -2.51907,-5.61266 -1.90035,-5.3475 -1.76777,-5.87782 -0.39774,-3.49134 -0.61872,-6.93849 -0.30936,-8.61786 -0.0442,-6.27558 0.26516,-11.49048 0.39775,-6.0988 0.26516,-3.31456 1.14905,-9.67852 0.7955,-6.14299 0.88388,-6.14299 0.57452,-3.97748 1.19325,-8.13173 1.37002,-7.82237 0.92807,-5.65685 0.97228,-5.65685 0.7071,-4.06587 3.66812,-18.82672 1.85615,-9.14819 2.82843,-13.21406 5.25911,-22.40644 1.72357,-6.49655 3.0052,-10.96015 2.56327,-8.22012 2.20971,-5.83363 2.87262,-6.0988 2.56326,-4.02167 3.40295,-4.99394 3.27037,-4.02167 3.7565,-3.8007 3.0494,-2.65165 2.12132,-1.5026 1.81196,-0.97227 1.63519,-0.70711 z"
       id="path5342"
       inkscape:connector-curvature="0" />
    <path
       style="fill:#ffffff;fill-opacity:1;fill-rule:evenodd;stroke:#000000;stroke-width:1px;stroke-linecap:butt;stroke-linejoin:miter;stroke-opacity:1"
       d="m 351.07851,327.29736 44.19418,0 -22.27386,36.76955 z"
       id="path5344"
       inkscape:connector-curvature="0"
       sodipodi:nodetypes="cccc" />
    <circle
       style="fill:#5294e2;fill-opacity:1"
       id="path5346"
       cx="347.35239"
       cy="295.20728"
       r="15.556349" />
    <circle
       style="fill:#5294e2;fill-opacity:1"
       id="path5346-7"
       cx="403.35239"
       cy="294.62152"
       r="15.556349" />
  </g>
</svg>
